<svg data-v-fde0c5aa="" xmlns="http://www.w3.org/2000/svg" viewBox="0 0 300 300" class="icon"><!----><defs data-v-fde0c5aa=""><!----></defs><rect data-v-fde0c5aa="" fill="#EDED1B" x="0" y="0" width="300px" height="300px" class="logo-background-square"></rect><!----><defs data-v-fde0c5aa=""><!----></defs><g data-v-fde0c5aa="" id="2b82721d-57d0-4ef4-83a7-8fc2c2d9ad62" fill="#131619" stroke="none" transform="matrix(4.375149118293167,0,0,4.375149118293167,42.174498437657526,39.48811098162396)"><path d="M26.53 10.843c-.014.148-.033.294-.033.444 0 3.495 2.713 6.326 6.058 6.326 3.344 0 6.055-2.832 6.055-6.326 0-.151-.021-.297-.031-.444H26.53zM40.253 8.155c-.396-3.512-2.425-6.392-5.141-7.519v5.403a.58.58 0 0 1-1.158 0V.272a6.507 6.507 0 0 0-1.38-.155c-.468 0-.924.059-1.369.156v5.766a.578.578 0 1 1-1.157 0V.638c-2.711 1.133-4.753 4.024-5.175 7.517h-2.001V9.66H42.26V8.155h-2.007z"></path><g><path d="M40.712 19.183l-2.604-.001-4.02 8.935v-9.111H31.31v9.02l-3.981-8.849-2.601-.001c-4.237 0-7.49 3.061-8.182 7.142L13.21 14.731a.81.81 0 0 0-.588-.563l-5.501-1.325c-1.734-.197-3.134.067-4.275.81-1.344.874-2.293 2.117-2.672 3.503-.354 1.295-.161 2.644.488 3.865.008.021.005.042.015.063l7.487 16.011-.518.255c-3.762 1.849-1.076 7.31 2.687 5.459l.41-.201 2.608 5.576c.421.902 1.23 1.62 2.219 1.971.465.165.958.246 1.464.246.776 0 1.583-.192 2.363-.573 2.239-1.093 3.236-3.398 2.319-5.363l-.038-.08a.813.813 0 0 0-.025-.324l-.547-1.901c.375-.492.628-1.142.628-1.992V28.501h1.697l-.003 20.775h18.907l.007-20.775h1.661v17.825c0 4.065 5.299 4.065 5.288 0V28.07c0-4.488-3.325-8.887-8.579-8.887zm-38.455 1.41c-.618-.951-.797-1.992-.52-3.01.273-1.001.981-1.914 1.992-2.571.825-.537 1.841-.714 3.11-.577l4.944 1.197 5.686 19.75-8.102-17.328c-.014-.03-.039-.049-.056-.076a4.148 4.148 0 0 0-.382-.743 3.453 3.453 0 0 0-4.772-1.009 2.926 2.926 0 0 0-.856 4.041A2.504 2.504 0 0 0 6.757 21a2.166 2.166 0 0 0 .634-2.988 1.9 1.9 0 0 0-.446-.482c.245.14.46.337.624.589a2.49 2.49 0 0 1-.727 3.443 3.32 3.32 0 0 1-4.585-.969zm16.43 27.778c-.895.437-1.811.524-2.576.256-.582-.207-1.053-.617-1.292-1.129l-2.621-5.605.136-.067c3.763-1.847 1.077-7.311-2.686-5.458l-.027.014-6.036-12.907c1.352.415 2.865.273 4.141-.554a4.068 4.068 0 0 0 1.394-1.57L20.247 45.15c.533 1.142-.138 2.527-1.56 3.221z"></path></g></g><!----></svg>