<svg data-v-423bf9ae="" xmlns="http://www.w3.org/2000/svg" viewBox="0 0 843 90" class="iconLeft"><!----><!----><!----><g data-v-423bf9ae="" id="646e4fed-1aaf-4ec3-9d65-a1c3fd5bb0fb" fill="black" transform="matrix(6.295907206394921,0,0,6.295907206394921,99.85103456256365,7.759706266705514)"><path d="M2.91 2.44L1.39 2.45L1.37 1.18L4.35 1.16L4.35 9.24L5.92 9.24L5.92 10.50L1.33 10.50L1.33 9.24L2.91 9.24L2.91 2.44ZM10.02 9.30L10.02 9.30L10.02 9.30Q10.42 9.30 10.89 9.11L10.89 9.11L10.89 9.11Q11.37 8.93 11.65 8.71L11.65 8.71L11.65 7.73L11.65 7.73Q10.81 7.66 10.28 7.66L10.28 7.66L10.28 7.66Q9.11 7.66 9.11 8.53L9.11 8.53L9.11 8.53Q9.11 9.30 10.02 9.30ZM9.80 10.65L9.80 10.65L9.80 10.65Q7.56 10.65 7.56 8.53L7.56 8.53L7.56 8.53Q7.56 7.39 8.28 6.94L8.28 6.94L8.28 6.94Q9.00 6.48 10.28 6.48L10.28 6.48L10.28 6.48Q10.88 6.48 11.65 6.55L11.65 6.55L11.65 6.55Q11.65 5.71 11.41 5.40L11.41 5.40L11.41 5.40Q11.17 5.10 10.58 5.10L10.58 5.10L10.58 5.10Q10.00 5.10 9.21 5.24L9.21 5.24L9.21 5.24Q8.43 5.38 8.01 5.52L8.01 5.52L7.74 4.19L7.74 4.19Q9.21 3.74 10.61 3.74L10.61 3.74L10.61 3.74Q12.01 3.74 12.55 4.35L12.55 4.35L12.55 4.35Q13.09 4.97 13.09 6.44L13.09 6.44L13.09 9.28L13.24 10.51L11.80 10.65L11.66 10.01L11.66 10.01Q10.49 10.65 9.80 10.65ZM16.21 5.14L15.13 5.14L15.13 3.85L17.65 3.85L17.68 4.52L17.68 4.52Q18.13 4.27 18.85 4.04L18.85 4.04L18.85 4.04Q19.57 3.81 20.19 3.74L20.19 3.74L20.19 5.14L20.19 5.14Q19.64 5.19 18.89 5.43L18.89 5.43L18.89 5.43Q18.13 5.67 17.68 5.92L17.68 5.92L17.68 9.24L19.73 9.24L19.73 10.50L15.13 10.50L15.13 9.21L16.21 9.21L16.21 5.14ZM24.02 9.30L24.02 9.30L24.02 9.30Q24.42 9.30 24.89 9.11L24.89 9.11L24.89 9.11Q25.37 8.93 25.65 8.71L25.65 8.71L25.65 7.73L25.65 7.73Q24.81 7.66 24.28 7.66L24.28 7.66L24.28 7.66Q23.11 7.66 23.11 8.53L23.11 8.53L23.11 8.53Q23.11 9.30 24.02 9.30ZM23.80 10.65L23.80 10.65L23.80 10.65Q21.56 10.65 21.56 8.53L21.56 8.53L21.56 8.53Q21.56 7.39 22.28 6.94L22.28 6.94L22.28 6.94Q23.00 6.48 24.28 6.48L24.28 6.48L24.28 6.48Q24.88 6.48 25.65 6.55L25.65 6.55L25.65 6.55Q25.65 5.71 25.41 5.40L25.41 5.40L25.41 5.40Q25.17 5.10 24.58 5.10L24.58 5.10L24.58 5.10Q24.00 5.10 23.21 5.24L23.21 5.24L23.21 5.24Q22.43 5.38 22.01 5.52L22.01 5.52L21.74 4.19L21.74 4.19Q23.21 3.74 24.61 3.74L24.61 3.74L24.61 3.74Q26.01 3.74 26.55 4.35L26.55 4.35L26.55 4.35Q27.09 4.97 27.09 6.44L27.09 6.44L27.09 9.28L27.24 10.51L25.80 10.65L25.66 10.01L25.66 10.01Q24.49 10.65 23.80 10.65ZM30.28 10.50L28.46 3.85L30.00 3.85L31.42 9.23L31.67 9.23L33.03 3.85L34.55 3.85L32.77 10.50L30.28 10.50ZM35.69 7.18L35.69 7.18Q35.69 5.49 36.44 4.61L36.44 4.61L36.44 4.61Q37.20 3.74 38.54 3.74L38.54 3.74L38.54 3.74Q39.89 3.74 40.62 4.53L40.62 4.53L40.62 4.53Q41.36 5.32 41.38 6.85L41.38 6.85L41.33 7.88L37.24 7.88L37.24 7.88Q37.37 9.39 38.75 9.39L38.75 9.39L38.75 9.39Q39.72 9.39 40.80 9.04L40.80 9.04L41.09 10.26L41.09 10.26Q40.64 10.42 39.93 10.54L39.93 10.54L39.93 10.54Q39.21 10.65 38.75 10.65L38.75 10.65L38.75 10.65Q35.69 10.65 35.69 7.18L35.69 7.18ZM38.60 5.04L38.60 5.04L38.60 5.04Q37.94 5.04 37.61 5.42L37.61 5.42L37.61 5.42Q37.28 5.81 37.24 6.71L37.24 6.71L39.83 6.71L39.83 6.71Q39.83 5.04 38.60 5.04ZM44.91 2.44L43.39 2.45L43.37 1.18L46.35 1.16L46.35 9.24L47.92 9.24L47.92 10.50L43.33 10.50L43.33 9.24L44.91 9.24L44.91 2.44ZM59.02 9.30L59.02 9.30L59.02 9.30Q59.42 9.30 59.89 9.11L59.89 9.11L59.89 9.11Q60.37 8.93 60.65 8.71L60.65 8.71L60.65 7.73L60.65 7.73Q59.81 7.66 59.28 7.66L59.28 7.66L59.28 7.66Q58.11 7.66 58.11 8.53L58.11 8.53L58.11 8.53Q58.11 9.30 59.02 9.30ZM58.80 10.65L58.80 10.65L58.80 10.65Q56.56 10.65 56.56 8.53L56.56 8.53L56.56 8.53Q56.56 7.39 57.28 6.94L57.28 6.94L57.28 6.94Q58.00 6.48 59.28 6.48L59.28 6.48L59.28 6.48Q59.88 6.48 60.65 6.55L60.65 6.55L60.65 6.55Q60.65 5.71 60.41 5.40L60.41 5.40L60.41 5.40Q60.17 5.10 59.58 5.10L59.58 5.10L59.58 5.10Q59.00 5.10 58.21 5.24L58.21 5.24L58.21 5.24Q57.43 5.38 57.01 5.52L57.01 5.52L56.74 4.19L56.74 4.19Q58.21 3.74 59.61 3.74L59.61 3.74L59.61 3.74Q61.01 3.74 61.55 4.35L61.55 4.35L61.55 4.35Q62.09 4.97 62.09 6.44L62.09 6.44L62.09 9.28L62.24 10.51L60.80 10.65L60.66 10.01L60.66 10.01Q59.49 10.65 58.80 10.65ZM65.21 5.14L64.13 5.14L64.13 3.85L66.65 3.85L66.68 4.52L66.68 4.52Q67.13 4.27 67.85 4.04L67.85 4.04L67.85 4.04Q68.57 3.81 69.19 3.74L69.19 3.74L69.19 5.14L69.19 5.14Q68.64 5.19 67.89 5.43L67.89 5.43L67.89 5.43Q67.13 5.67 66.68 5.92L66.68 5.92L66.68 9.24L68.73 9.24L68.73 10.50L64.13 10.50L64.13 9.21L65.21 9.21L65.21 5.14ZM76.03 3.99L76.03 3.99L75.82 5.33L75.82 5.33Q74.90 5.08 74.03 5.08L74.03 5.08L74.03 5.08Q73.16 5.08 72.77 5.56L72.77 5.56L72.77 5.56Q72.38 6.05 72.38 7.11L72.38 7.11L72.38 7.11Q72.38 8.18 72.72 8.74L72.72 8.74L72.72 8.74Q73.05 9.31 73.99 9.31L73.99 9.31L73.99 9.31Q74.93 9.31 75.82 9.06L75.82 9.06L76.03 10.40L76.03 10.40Q75.05 10.68 73.95 10.68L73.95 10.68L73.95 10.68Q70.83 10.68 70.83 7.20L70.83 7.20L70.83 7.20Q70.83 3.71 73.93 3.71L73.93 3.71L73.93 3.71Q75.10 3.71 76.03 3.99ZM79.23 5.60L79.23 5.60L79.23 10.50L77.78 10.50L77.78 1.16L79.23 1.16L79.23 4.24L79.23 4.24Q80.36 3.74 81.00 3.74L81.00 3.74L81.00 3.74Q82.21 3.74 82.70 4.44L82.70 4.44L82.70 4.44Q83.20 5.14 83.20 6.48L83.20 6.48L83.20 10.50L81.76 10.50L81.76 6.45L81.76 6.45Q81.76 5.87 81.53 5.48L81.53 5.48L81.53 5.48Q81.30 5.10 80.92 5.10L80.92 5.10L80.92 5.10Q80.23 5.10 79.23 5.60ZM87.00 5.17L85.44 5.17L85.44 3.88L88.44 3.88L88.44 9.21L89.99 9.21L89.99 10.50L85.33 10.50L85.33 9.21L87.00 9.21L87.00 5.17ZM87.04 2.65L87.04 2.65L87.04 2.65Q86.77 2.38 86.77 2.02L86.77 2.02L86.77 2.02Q86.77 1.65 87.02 1.40L87.02 1.40L87.02 1.40Q87.28 1.15 87.64 1.15L87.64 1.15L87.64 1.15Q88.00 1.15 88.26 1.39L88.26 1.39L88.26 1.39Q88.51 1.64 88.51 2.02L88.51 2.02L88.51 2.02Q88.51 2.39 88.26 2.66L88.26 2.66L88.26 2.66Q88.00 2.93 87.65 2.93L87.65 2.93L87.65 2.93Q87.30 2.93 87.04 2.65ZM92.96 7.95L92.96 5.14L91.90 5.14L91.90 3.85L92.96 3.85L92.96 2.25L94.40 2.11L94.40 3.85L96.89 3.85L96.89 5.14L94.40 5.14L94.40 7.95L94.40 7.95Q94.40 8.72 94.56 9.03L94.56 9.03L94.56 9.03Q94.72 9.34 95.28 9.34L95.28 9.34L95.28 9.34Q95.84 9.34 96.77 9.11L96.77 9.11L97.01 10.37L97.01 10.37Q95.94 10.65 95.19 10.65L95.19 10.65L95.19 10.65Q93.84 10.65 93.40 10.05L93.40 10.05L93.40 10.05Q92.96 9.45 92.96 7.95L92.96 7.95ZM98.69 7.18L98.69 7.18Q98.69 5.49 99.44 4.61L99.44 4.61L99.44 4.61Q100.20 3.74 101.54 3.74L101.54 3.74L101.54 3.74Q102.89 3.74 103.62 4.53L103.62 4.53L103.62 4.53Q104.36 5.32 104.38 6.85L104.38 6.85L104.33 7.88L100.24 7.88L100.24 7.88Q100.37 9.39 101.75 9.39L101.75 9.39L101.75 9.39Q102.72 9.39 103.80 9.04L103.80 9.04L104.09 10.26L104.09 10.26Q103.64 10.42 102.93 10.54L102.93 10.54L102.93 10.54Q102.21 10.65 101.75 10.65L101.75 10.65L101.75 10.65Q98.69 10.65 98.69 7.18L98.69 7.18ZM101.60 5.04L101.60 5.04L101.60 5.04Q100.94 5.04 100.61 5.42L100.61 5.42L100.61 5.42Q100.28 5.81 100.24 6.71L100.24 6.71L102.83 6.71L102.83 6.71Q102.83 5.04 101.60 5.04ZM111.03 3.99L111.03 3.99L110.82 5.33L110.82 5.33Q109.90 5.08 109.03 5.08L109.03 5.08L109.03 5.08Q108.16 5.08 107.77 5.56L107.77 5.56L107.77 5.56Q107.38 6.05 107.38 7.11L107.38 7.11L107.38 7.11Q107.38 8.18 107.72 8.74L107.72 8.74L107.72 8.74Q108.05 9.31 108.99 9.31L108.99 9.31L108.99 9.31Q109.93 9.31 110.82 9.06L110.82 9.06L111.03 10.40L111.03 10.40Q110.05 10.68 108.95 10.68L108.95 10.68L108.95 10.68Q105.83 10.68 105.83 7.20L105.83 7.20L105.83 7.20Q105.83 3.71 108.93 3.71L108.93 3.71L108.93 3.71Q110.10 3.71 111.03 3.99ZM113.96 7.95L113.96 5.14L112.90 5.14L112.90 3.85L113.96 3.85L113.96 2.25L115.40 2.11L115.40 3.85L117.89 3.85L117.89 5.14L115.40 5.14L115.40 7.95L115.40 7.95Q115.40 8.72 115.56 9.03L115.56 9.03L115.56 9.03Q115.72 9.34 116.28 9.34L116.28 9.34L116.28 9.34Q116.84 9.34 117.77 9.11L117.77 9.11L118.01 10.37L118.01 10.37Q116.94 10.65 116.19 10.65L116.19 10.65L116.19 10.65Q114.84 10.65 114.40 10.05L114.40 10.05L114.40 10.05Q113.96 9.45 113.96 7.95L113.96 7.95Z"></path></g><!----><g data-v-423bf9ae="" id="6cbeecb4-2183-44e2-8f49-b6fa35c4147a" transform="matrix(1.789833730210841,0,0,1.789833730210841,0.8885298556148626,-0.0924099275033754)" stroke="none" fill="black"><path d="M26.53 10.843c-.014.148-.033.294-.033.444 0 3.495 2.713 6.326 6.058 6.326 3.344 0 6.055-2.832 6.055-6.326 0-.151-.021-.297-.031-.444H26.53zM40.253 8.155c-.396-3.512-2.425-6.392-5.141-7.519v5.403a.58.58 0 0 1-1.158 0V.272a6.507 6.507 0 0 0-1.38-.155c-.468 0-.924.059-1.369.156v5.766a.578.578 0 1 1-1.157 0V.638c-2.711 1.133-4.753 4.024-5.175 7.517h-2.001V9.66H42.26V8.155h-2.007z"></path><g><path d="M40.712 19.183l-2.604-.001-4.02 8.935v-9.111H31.31v9.02l-3.981-8.849-2.601-.001c-4.237 0-7.49 3.061-8.182 7.142L13.21 14.731a.81.81 0 0 0-.588-.563l-5.501-1.325c-1.734-.197-3.134.067-4.275.81-1.344.874-2.293 2.117-2.672 3.503-.354 1.295-.161 2.644.488 3.865.008.021.005.042.015.063l7.487 16.011-.518.255c-3.762 1.849-1.076 7.31 2.687 5.459l.41-.201 2.608 5.576c.421.902 1.23 1.62 2.219 1.971.465.165.958.246 1.464.246.776 0 1.583-.192 2.363-.573 2.239-1.093 3.236-3.398 2.319-5.363l-.038-.08a.813.813 0 0 0-.025-.324l-.547-1.901c.375-.492.628-1.142.628-1.992V28.501h1.697l-.003 20.775h18.907l.007-20.775h1.661v17.825c0 4.065 5.299 4.065 5.288 0V28.07c0-4.488-3.325-8.887-8.579-8.887zm-38.455 1.41c-.618-.951-.797-1.992-.52-3.01.273-1.001.981-1.914 1.992-2.571.825-.537 1.841-.714 3.11-.577l4.944 1.197 5.686 19.75-8.102-17.328c-.014-.03-.039-.049-.056-.076a4.148 4.148 0 0 0-.382-.743 3.453 3.453 0 0 0-4.772-1.009 2.926 2.926 0 0 0-.856 4.041A2.504 2.504 0 0 0 6.757 21a2.166 2.166 0 0 0 .634-2.988 1.9 1.9 0 0 0-.446-.482c.245.14.46.337.624.589a2.49 2.49 0 0 1-.727 3.443 3.32 3.32 0 0 1-4.585-.969zm16.43 27.778c-.895.437-1.811.524-2.576.256-.582-.207-1.053-.617-1.292-1.129l-2.621-5.605.136-.067c3.763-1.847 1.077-7.311-2.686-5.458l-.027.014-6.036-12.907c1.352.415 2.865.273 4.141-.554a4.068 4.068 0 0 0 1.394-1.57L20.247 45.15c.533 1.142-.138 2.527-1.56 3.221z"></path></g></g><!----></svg>